#!OML:ASF H:\Pregnant\Project 1\Capture day 1\Session 1\femalepreg.ASF
:FULLY-SPECIFIED
:DEGREES
243
root 9.4928 13.8396 27.897 64.6054 -72.1645 -46.0831
lowerback -6.42306 -0.584943 -2.59064
upperback -5.26756 -0.804772 -0.152463
thorax -1.80373 -0.391691 1.25881
lowerneck -27.4848 2.07469 2.41983
upperneck 13.3395 0.87576 4.68526
head 8.59457 1.06738 1.36512
rclavicle 1.68967e-014 -1.59028e-015
rhumerus -35.6559 25.4898 -96.0481
rradius 39.9607
rwrist -0.737132
rhand -8.73311 -13.2834
rfingers 7.12502
rthumb 17.2033 -42.5419
lclavicle 1.68967e-014 -1.59028e-015
lhumerus -34.7074 -33.0138 101.344
lradius 47.5975
lwrist 31.0599
lhand -22.5456 -2.59459
lfingers 7.12502
lthumb 3.88195 27.3498
rfemur -24.6116 0.74024 10.5134
rtibia 34.1413
rfoot -16.5857 -16.1492
rtoes -37.2387
lfemur -42.7481 3.99304 18.9615
ltibia 40.4894
lfoot -15.4617 1.45586
ltoes -37.0743
244
root 9.49231 13.8159 27.9249 63.2811 -72.0542 -44.7902
lowerback -6.0551 -0.540861 -3.06761
upperback -5.19547 -0.733326 -0.353002
thorax -1.93515 -0.34202 1.32626
lowerneck -27.5304 1.82776 2.08754
upperneck 13.0317 0.652188 4.80953
head 8.49648 0.951707 1.42386
rclavicle 2.0276e-014 3.81667e-014
rhumerus -35.6087 25.1545 -95.865
rradius 40.2107
rwrist -0.875395
rhand -8.67485 -13.3352
rfingers 7.12502
rthumb 17.2594 -42.5888
lclavicle 2.0276e-014 3.81667e-014
lhumerus -35.1332 -34.047 101.871
lradius 48.2089
lwrist 30.7242
lhand -22.3227 -2.44431
lfingers 7.12502
lthumb 4.09713 27.496
rfemur -24.4338 0.646813 10.0862
rtibia 34.3712
rfoot -16.8195 -15.9776
rtoes -37.3651
lfemur -43.4625 4.44135 18.4501
ltibia 41.2377
lfoot -15.8176 0.567263
ltoes -37.036
245
root 9.49184 13.7904 27.9569 62.0217 -71.8191 -43.5319
lowerback -5.72682 -0.510155 -3.4174
upperback -5.12627 -0.68752 -0.526319
thorax -2.04785 -0.308783 1.34836
lowerneck -27.595 1.58305 1.77003
upperneck 12.7639 0.427867 4.91649
head 8.41655 0.835827 1.47525
rclavicle -5.1684e-015 -2.22639e-014
rhumerus -35.5375 24.6871 -95.6345
rradius 40.4279
rwrist -0.98259
rhand -8.69726 -13.3873
rfingers 7.12502
rthumb 17.2378 -42.6427
lclavicle -5.1684e-015 -2.22639e-014
lhumerus -35.5736 -35.0889 102.385
lradius 48.8444
lwrist 30.3321
lhand -22.1112 -2.28067
lfingers 7.12502
lthumb 4.3014 27.6556
rfemur -24.1685 0.579899 9.75682
rtibia 34.4462
rfoot -17.0144 -15.904
rtoes -37.5165
lfemur -44.2921 4.87224 18.0371
ltibia 42.0625
lfoot -16.1811 -0.337598
ltoes -37.0321
246
root 9.49236 13.7622 27.9944 60.8321 -71.4271 -42.3009
lowerback -5.44645 -0.492559 -3.5892
upperback -5.05888 -0.666059 -0.675467
thorax -2.13561 -0.293004 1.29398
lowerneck -27.7028 1.32898 1.46047
upperneck 12.5486 0.187862 5.00885
head 8.363 0.713193 1.51948
rclavicle 9.93923e-015 2.54444e-014
rhumerus -35.4397 24.0666 -95.3449
rradius 40.6172
rwrist -1.05679
rhand -8.79112 -13.4202
rfingers 7.12502
rthumb 17.1475 -42.6835
lclavicle 9.93923e-015 2.54444e-014
lhumerus -35.9665 -36.0668 102.862
lradius 49.4481
lwrist 29.7548
lhand -21.8392 -2.09227
lfingers 7.12502
lthumb 4.56404 27.8386
rfemur -23.8473 0.479719 9.56154
rtibia 34.4042
rfoot -17.147 -15.9548
rtoes -37.7037
lfemur -45.2848 5.25318 17.7489
ltibia 42.9837
lfoot -16.5499 -1.2399
ltoes -37.0564
247
root 9.4942 13.7305 28.0378 59.7732 -70.8667 -41.1487
lowerback -5.2221 -0.49851 -3.57566
upperback -4.99645 -0.680607 -0.791166
thorax -2.19619 -0.300669 1.16856
lowerneck -27.8598 1.0783 1.1752
upperneck 12.3885 -0.0571434 5.08779
head 8.33733 0.589893 1.55587
rclavicle 6.75868e-015 -6.36111e-015
rhumerus -35.3239 23.3378 -95.0148
rradius 40.7859
rwrist -1.11675
rhand -8.95503 -13.4539
rfingers 7.12502
rthumb 16.9897 -42.7309
lclavicle 6.75868e-015 -6.36111e-015
lhumerus -36.346 -37.0063 103.301
lradius 50.0623
lwrist 29.0139
lhand -21.4756 -1.82845
lfingers 7.12502
lthumb 4.91516 28.0945
rfemur -23.5098 0.324143 9.52702
rtibia 34.2868
rfoot -17.2074 -16.1455
rtoes -37.888
lfemur -46.4572 5.5834 17.6033
ltibia 44.0091
lfoot -16.9267 -2.1261
ltoes -37.1173
248
root 9.49757 13.6955 28.0871 58.8796 -70.1558 -40.1019
lowerback -5.06323 -0.516054 -3.37338
upperback -4.94569 -0.714064 -0.886274
thorax -2.23252 -0.323502 0.957777
lowerneck -28.0335 0.813855 0.873117
upperneck 12.2552 -0.321611 5.19997
head 8.32518 0.461225 1.604
rclavicle 3.26007e-014 2.8625e-014
rhumerus -35.2061 22.4806 -94.644
rradius 40.943
rwrist -1.17833
rhand -9.17732 -13.5039
rfingers 7.12502
rthumb 16.7757 -42.7991
lclavicle 3.26007e-014 2.8625e-014
lhumerus -36.684 -37.8543 103.695
lradius 50.6394
lwrist 27.9982
lhand -21.0003 -1.47893
lfingers 7.12502
lthumb 5.37408 28.4329
rfemur -23.1989 0.0943381 9.64947
rtibia 34.1347
rfoot -17.1651 -16.4892
rtoes -38.0883
lfemur -47.8015 5.86251 17.5892
ltibia 45.124
lfoot -17.304 -2.98552
ltoes -37.1938
249
root 9.50284 13.6576 28.143 58.0748 -69.3116 -39.0854
lowerback -4.95755 -0.549546 -3.00358
upperback -4.9076 -0.771765 -0.97252
thorax -2.25313 -0.363592 0.661438
lowerneck -28.2346 0.5367 0.576066
upperneck 12.1558 -0.60922 5.32802
head 8.33091 0.324906 1.65393
rclavicle -9.14409e-015 -1.90833e-014
rhumerus -35.0924 21.5033 -94.2383
rradius 41.0815
rwrist -1.24998
rhand -9.46395 -13.5557
rfingers 7.12502
rthumb 16.4998 -42.8741
lclavicle -9.14409e-015 -1.90833e-014
lhumerus -37.0312 -38.6703 104.067
lradius 51.2243
lwrist 26.7582
lhand -20.4716 -0.992406
lfingers 7.12502
lthumb 5.88452 28.9059
rfemur -22.9225 -0.222016 9.88501
rtibia 33.9819
rfoot -17.0643 -16.9342
rtoes -38.1731
lfemur -49.3142 6.05007 17.674
ltibia 46.305
lfoot -17.6643 -3.79306
ltoes -37.2847
250
root 9.50735 13.6198 28.2018 57.6643 -68.4635 -38.4286
lowerback -4.92923 -0.562134 -2.58802
upperback -4.88248 -0.799943 -1.02918
thorax -2.24605 -0.390192 0.370158
lowerneck -28.4463 0.264511 0.288552
upperneck 12.0727 -0.897171 5.47453
head 8.34532 0.191627 1.70872
rclavicle -5.96354e-015 -1.90833e-014
rhumerus -34.9897 20.4629 -93.807
rradius 41.192
rwrist -1.34127
rhand -9.81983 -13.6186
rfingers 7.12502
rthumb 16.1571 -42.9652
lclavicle -5.96354e-015 -1.90833e-014
lhumerus -37.3475 -39.3426 104.396
lradius 51.7819
lwrist 25.1956
lhand -19.8902 -0.353247
lfingers 7.12502
lthumb 6.44585 29.5287
rfemur -22.7433 -0.460919 10.2102
rtibia 33.8541
rfoot -16.8771 -17.4652
rtoes -38.1542
lfemur -50.8148 6.29576 17.8306
ltibia 47.5147
lfoot -18.0452 -4.55046
ltoes -37.4063
251
root 9.51236 13.5825 28.2661 57.3322 -67.6103 -37.8196
lowerback -4.94111 -0.576247 -2.14826
upperback -4.86271 -0.829914 -1.07929
thorax -2.2231 -0.418477 0.0715584
lowerneck -28.6677 -0.0101044 -0.00400122
upperneck 11.9896 -1.19086 5.64819
head 8.36309 0.0587278 1.77267
rclavicle -3.85642e-014 -1.59028e-014
rhumerus -34.8868 19.3546 -93.3352
rradius 41.2591
rwrist -1.45393
rhand -10.2364 -13.6699
rfingers 7.12502
rthumb 15.756 -43.0486
lclavicle -3.85642e-014 -1.59028e-014
lhumerus -37.6358 -39.8987 104.696
lradius 52.3151
lwrist 23.3405
lhand -19.3429 0.426308
lfingers 7.12502
lthumb 6.97412 30.2914
rfemur -22.6235 -0.701477 10.5394
rtibia 33.7684
rfoot -16.6261 -18.0378
rtoes -38.0354
lfemur -52.345 6.47135 17.9911
ltibia 48.7222
lfoot -18.4014 -5.22339
ltoes -37.5285
252
root 9.51653 13.5482 28.3344 57.1389 -66.8391 -37.3387
lowerback -4.99282 -0.574691 -1.7752
upperback -4.84374 -0.836392 -1.12363
thorax -2.1791 -0.433096 -0.183644
lowerneck -28.896 -0.277609 -0.282683
upperneck 11.9009 -1.48114 5.8329
head 8.38128 -0.0705109 1.83845
rclavicle -2.3059e-014 4.45278e-014
rhumerus -34.7838 18.209 -92.8311
rradius 41.2747
rwrist -1.59346
rhand -10.6848 -13.7187
rfingers 7.12502
rthumb 15.3241 -43.1309
lclavicle -2.3059e-014 4.45278e-014
lhumerus -37.8849 -40.3115 104.961
lradius 52.813
lwrist 21.1885
lhand -18.8685 1.31078
lfingers 7.12502
lthumb 7.43212 31.1602
rfemur -22.5757 -0.858784 10.8149
rtibia 33.7341
rfoot -16.3064 -18.6148
rtoes -37.8483
lfemur -53.7995 6.61878 18.1117
ltibia 49.8952
lfoot -18.7426 -5.80026
ltoes -37.6227
253
root 9.51976 13.5178 28.4067 57.002 -66.1829 -36.9141
lowerback -5.06761 -0.555429 -1.50628
upperback -4.82059 -0.816179 -1.17661
thorax -2.11735 -0.431486 -0.389008
lowerneck -29.125 -0.545496 -0.558542
upperneck 11.7945 -1.77616 6.04332
head 8.39538 -0.199201 1.91151
rclavicle 6.75868e-015 0
rhumerus -34.6787 17.0316 -92.2973
rradius 41.2376
rwrist -1.76541
rhand -11.1573 -13.7751
rfingers 7.12502
rthumb 14.869 -43.2215
lclavicle 6.75868e-015 0
lhumerus -38.1284 -40.6591 105.203
lradius 53.2973
lwrist 18.7953
lhand -18.4972 2.2567
lfingers 7.12502
lthumb 7.79043 32.0932
rfemur -22.5856 -0.927912 10.9824
rtibia 33.7553
rfoot -15.9128 -19.159
rtoes -37.6403
lfemur -55.1479 6.69984 18.1589
ltibia 51.0138
lfoot -19.0604 -6.25716
ltoes -37.6579
